# xmcd
# 
# Track frame offsets:
#     150
#     20454
#     39231
#     56693
#     75078
#     96002
#     117134
#     137073
#     152126
#     172382
#     192387
#     209775
#     229145
#     248787
#     268476
#     287981
#     302954
# 
# Disc length: 4319
# 
# Revision: 7
# Processed by: cddbd v1.5.1PL0 Copyright (c) Steve Scherf et al.
# Submitted via: BonkEnc v1.0beta3
# 
DISCID=fa10dd11
DTITLE=RYU - 冬季戀歌
DYEAR=1900
DGENRE=
TTITLE0=從開始到現在
TTITLE1=白色的戀人
TTITLE2=我的回憶(小提琴版)
TTITLE3=預感
TTITLE4=放不下的愛
TTITLE5=仍然
TTITLE6=情人
TTITLE7=火花
TTITLE8=再見吾愛
TTITLE9=我的回憶
TTITLE10=夜光下的記憶
TTITLE11=憂鬱之愛
TTITLE12=想念床゜(ケンカラネヌ)
TTITLE13=タアタア
TTITLE14=?イ賻?ニハヤー?トフエ
TTITLE15=ツ隹?。
TTITLE16=ア?メイヨ
EXTD=
EXTT0=
EXTT1=
EXTT2=
EXTT3=
EXTT4=
EXTT5=
EXTT6=
EXTT7=
EXTT8=
EXTT9=
EXTT10=
EXTT11=
EXTT12=
EXTT13=
EXTT14=
EXTT15=
EXTT16=
PLAYORDER=
